<?xml version="1.0" encoding="UTF-8" standalone="no"?>
<!-- Created with Inkscape (http://www.inkscape.org/) -->

<svg
   xmlns:dc="http://purl.org/dc/elements/1.1/"
   xmlns:cc="http://creativecommons.org/ns#"
   xmlns:rdf="http://www.w3.org/1999/02/22-rdf-syntax-ns#"
   xmlns:svg="http://www.w3.org/2000/svg"
   xmlns="http://www.w3.org/2000/svg"
   xmlns:xlink="http://www.w3.org/1999/xlink"
   xmlns:sodipodi="http://sodipodi.sourceforge.net/DTD/sodipodi-0.dtd"
   xmlns:inkscape="http://www.inkscape.org/namespaces/inkscape"
   width="236.4243"
   height="270.34732"
   id="svg2"
   version="1.1"
   inkscape:version="0.48.2 r9819"
   sodipodi:docname="mindbody2.svg"
   inkscape:export-filename="/home/gordon/Downloads/mindbody2.png"
   inkscape:export-xdpi="90"
   inkscape:export-ydpi="90">
  <defs
     id="defs4">
    <linearGradient
       id="linearGradient5374">
      <stop
         style="stop-color:#000000;stop-opacity:0;"
         offset="0"
         id="stop5376" />
      <stop
         style="stop-color:#000000;stop-opacity:1;"
         offset="1"
         id="stop5378" />
    </linearGradient>
    <linearGradient
       id="linearGradient5356">
      <stop
         style="stop-color:#ff0000;stop-opacity:1;"
         offset="0"
         id="stop5358" />
      <stop
         id="stop5360"
         offset="0.55313015"
         style="stop-color:#ffa500;stop-opacity:1;" />
      <stop
         id="stop5362"
         offset="0.63427621"
         style="stop-color:#ffff00;stop-opacity:1;" />
      <stop
         id="stop5364"
         offset="0.75205863"
         style="stop-color:#7cfc00;stop-opacity:1;" />
      <stop
         id="stop5366"
         offset="0.86342907"
         style="stop-color:#0000ff;stop-opacity:1;" />
      <stop
         id="stop5368"
         offset="0.94128042"
         style="stop-color:#a520f0;stop-opacity:1;" />
      <stop
         id="stop5370"
         offset="1"
         style="stop-color:#ffffff;stop-opacity:1;" />
    </linearGradient>
    <linearGradient
       id="linearGradient3824">
      <stop
         id="stop3834"
         offset="0"
         style="stop-color:#ff0000;stop-opacity:1;" />
      <stop
         style="stop-color:#ffa500;stop-opacity:1;"
         offset="0.23999999"
         id="stop3854" />
      <stop
         style="stop-color:#ffff00;stop-opacity:1;"
         offset="0.41354516"
         id="stop3852" />
      <stop
         style="stop-color:#7cfc00;stop-opacity:1;"
         offset="0.58266038"
         id="stop3850" />
      <stop
         style="stop-color:#0000ff;stop-opacity:1;"
         offset="0.73509705"
         id="stop3846" />
      <stop
         style="stop-color:#a520f0;stop-opacity:1;"
         offset="0.94128042"
         id="stop3844" />
      <stop
         style="stop-color:#ffffff;stop-opacity:1;"
         offset="1"
         id="stop3828" />
    </linearGradient>
    <linearGradient
       inkscape:collect="always"
       xlink:href="#linearGradient3824"
       id="linearGradient3830"
       x1="632.867"
       y1="545.36365"
       x2="634.76251"
       y2="377.20572"
       gradientUnits="userSpaceOnUse" />
    <linearGradient
       inkscape:collect="always"
       xlink:href="#linearGradient3824"
       id="linearGradient3861"
       gradientUnits="userSpaceOnUse"
       x1="632.867"
       y1="545.36365"
       x2="634.76251"
       y2="377.20572" />
    <linearGradient
       inkscape:collect="always"
       xlink:href="#linearGradient3824"
       id="linearGradient3868"
       gradientUnits="userSpaceOnUse"
       x1="632.867"
       y1="545.36365"
       x2="634.76251"
       y2="377.20572"
       gradientTransform="translate(-24.493858,-6.194317)" />
    <linearGradient
       inkscape:collect="always"
       xlink:href="#linearGradient3824"
       id="linearGradient3871"
       gradientUnits="userSpaceOnUse"
       gradientTransform="translate(-24.493858,-6.194317)"
       x1="632.867"
       y1="545.36365"
       x2="634.76251"
       y2="377.20572" />
    <radialGradient
       inkscape:collect="always"
       xlink:href="#linearGradient5374"
       id="radialGradient5380"
       cx="647.30615"
       cy="479.38785"
       fx="647.30615"
       fy="479.38785"
       r="113.23657"
       gradientTransform="matrix(1,0,0,1.0656429,0,-31.468396)"
       gradientUnits="userSpaceOnUse" />
    <linearGradient
       inkscape:collect="always"
       xlink:href="#linearGradient3824"
       id="linearGradient5382"
       gradientUnits="userSpaceOnUse"
       gradientTransform="translate(246.81722,2.4777268)"
       x1="632.867"
       y1="545.36365"
       x2="634.76251"
       y2="377.20572" />
  </defs>
  <sodipodi:namedview
     id="base"
     pagecolor="#ffffff"
     bordercolor="#666666"
     borderopacity="1.0"
     inkscape:pageopacity="0.0"
     inkscape:pageshadow="2"
     inkscape:zoom="1.614383"
     inkscape:cx="5.1038486"
     inkscape:cy="117.09178"
     inkscape:document-units="px"
     inkscape:current-layer="layer1"
     showgrid="false"
     inkscape:window-width="1366"
     inkscape:window-height="709"
     inkscape:window-x="0"
     inkscape:window-y="27"
     inkscape:window-maximized="1"
     fit-margin-top="0"
     fit-margin-left="0"
     fit-margin-right="0"
     fit-margin-bottom="0" />
  <metadata
     id="metadata7">
    <rdf:RDF>
      <cc:Work
         rdf:about="">
        <dc:format>image/svg+xml</dc:format>
        <dc:type
           rdf:resource="http://purl.org/dc/dcmitype/StillImage" />
        <dc:title></dc:title>
      </cc:Work>
    </rdf:RDF>
  </metadata>
  <g
     inkscape:label="Layer 1"
     inkscape:groupmode="layer"
     id="layer1"
     transform="translate(-765.09744,-342.11906)">
    <path
       sodipodi:type="arc"
       style="fill:url(#radialGradient5380);fill-opacity:1;stroke:#000000;stroke-opacity:1"
       id="path3863"
       sodipodi:cx="647.30615"
       sodipodi:cy="479.38785"
       sodipodi:rx="112.73657"
       sodipodi:ry="120.16975"
       d="m 760.04272,479.38785 c 0,66.36792 -50.47388,120.16974 -112.73657,120.16974 -62.26269,0 -112.73657,-53.80182 -112.73657,-120.16974 0,-66.36792 50.47388,-120.16975 112.73657,-120.16975 62.26269,0 112.73657,53.80183 112.73657,120.16975 z"
       transform="matrix(1.0437736,0,0,1.1203566,207.66852,-59.792618)" />
    <path
       style="fill:url(#linearGradient5382);fill-opacity:1;stroke:none"
       d="m 882.74858,378.76579 c -20.38336,2.90744 -19.50292,21.15975 -7.15625,41.15625 -1.43043,9.3642 -4.38869,16.21733 -11.625,14.78125 -14.40828,-2.85939 -19.69609,1.02547 -22.75,10.0625 -4.34372,12.85381 -7.91534,25.70869 -13.71875,38.5625 -2.82801,1.89769 -5.44678,3.63967 -9.8125,6.5625 -6.62271,-2.17724 -10.23451,-2.37918 -16.9375,3.8125 -0.21455,7.47959 5.42088,10.58442 11.5,13.34375 -5.75588,2.79534 -7.40729,7.93285 -1.96875,17.125 8.1921,7.27124 15.75696,20.19115 37.71875,25.25 -6.86338,0.37527 -9.65182,1.2133 -9.625,5.6875 -1.89159,4.26025 1.16664,12.09933 3.25,12.4375 11.33693,-10.19734 14.37105,-9.72755 26.21875,-14.15625 16.80051,7.73886 13.10401,3.32867 45.25,9.9375 7.04471,-0.46682 15.31997,6.71457 20.625,3.53125 3.83682,-2.30231 -1.15991,-10.28465 -1.125,-12.6875 0.0349,-2.40285 -29.90331,-3.42347 -30.78125,-5 -2.24473,-2.43661 52.46949,-7.68307 61.46875,-20.25 0.90949,-4.60522 0.57167,-8.58848 -1.71875,-11.59375 13.44292,-0.88626 13.09755,-5.79204 14.1875,-10.28125 -3.26367,-7.23231 -6.51758,-9.48872 -9.78125,-9.8125 l -5.375,2.46875 c -6.36416,0.19943 -12.72959,-10.7709 -19.09375,-16.15625 l -15.125,-30.46875 c -5.72419,-18.05341 -14.69946,-18.29024 -24.53125,-18 -9.09289,-2.2138 -10.8237,-8.4869 -10.46875,-15.4375 13.15234,-30.65045 3.44594,-37.02429 -8.625,-40.875 z m 29.375,84.21875 19.09375,33.78125 c 6.30447,7.33922 14.16206,10.52086 22.03125,13.6875 -26.8954,2.36299 -28.1022,11.33741 -42.84375,10.09375 -0.004,-6.46059 -2.40879,-12.9144 -3.84375,-19.375 2.57281,-5.54434 2.62092,-24.31714 5.5625,-38.1875 z m -63.15625,5.875 c 1.66864,-0.38383 5.76813,18.39849 6.375,33.28125 -2.3078,6.64405 -6.12245,10.30794 -9.3125,15.1875 l -20.5625,-14.6875 c 4.89097,-0.1836 8.88377,-4.37694 12.71875,-9.3125 l 10.78125,-24.46875 z"
       id="path3007"
       inkscape:connector-curvature="0" />
  </g>
  <g
     inkscape:groupmode="layer"
     id="layer2"
     inkscape:label="med"
     transform="translate(-765.09744,-342.11906)" />
</svg>
